<?xml version="1.0" standalone="no"?>
<!DOCTYPE svg PUBLIC "-//W3C//DTD SVG 20010904//EN"
 "http://www.w3.org/TR/2001/REC-SVG-20010904/DTD/svg10.dtd">
<svg version="1.0" xmlns="http://www.w3.org/2000/svg"
 width="2844.000000pt" height="2844.000000pt" viewBox="0 0 2844.000000 2844.000000"
 preserveAspectRatio="xMidYMid meet">
<metadata>
Created by potrace 1.11, written by Peter Selinger 2001-2013
</metadata>
<g transform="translate(0.000000,2844.000000) scale(0.100000,-0.100000)"
fill="#000000" stroke="none">
<path d="M13748 28316 c-1 -2 -91 -6 -198 -10 -107 -4 -211 -9 -230 -11 -19
-2 -87 -6 -150 -10 -63 -3 -133 -8 -155 -10 -22 -2 -76 -7 -120 -10 -44 -3
-91 -8 -105 -10 -14 -2 -56 -6 -95 -10 -88 -8 -184 -18 -275 -30 -19 -2 -57
-7 -85 -10 -27 -3 -126 -17 -220 -30 -216 -32 -212 -31 -325 -50 -52 -9 -104
-18 -115 -20 -11 -1 -38 -6 -60 -10 -22 -4 -47 -9 -55 -10 -78 -14 -444 -88
-475 -97 -22 -5 -51 -12 -65 -14 -54 -10 -475 -115 -650 -163 -676 -186 -1493
-481 -2065 -746 -44 -20 -96 -44 -115 -52 -119 -53 -628 -309 -805 -406 -844
-459 -1615 -984 -2342 -1593 -116 -98 -149 -126 -202 -174 -9 -8 -53 -46 -97
-85 -43 -38 -97 -86 -119 -107 -22 -20 -53 -49 -70 -64 -160 -145 -557 -536
-706 -695 -464 -494 -892 -1021 -1298 -1597 -277 -393 -604 -922 -854 -1382
-16 -30 -38 -68 -47 -85 -25 -41 -238 -468 -295 -590 -467 -995 -830 -2076
-1050 -3125 -48 -228 -122 -635 -141 -775 -3 -22 -11 -80 -19 -130 -7 -49 -16
-115 -20 -145 -3 -30 -10 -82 -15 -115 -5 -33 -12 -91 -15 -130 -4 -38 -8 -77
-10 -85 -2 -8 -7 -51 -10 -95 -4 -44 -8 -89 -10 -101 -2 -11 -6 -65 -10 -120
-4 -54 -9 -106 -10 -115 -2 -8 -6 -71 -10 -140 -4 -68 -8 -137 -10 -154 -25
-214 -25 -1425 0 -1610 2 -16 6 -84 10 -151 3 -66 7 -129 9 -140 2 -10 7 -64
10 -119 4 -55 9 -113 11 -130 4 -28 7 -59 20 -190 3 -27 7 -66 10 -85 2 -19 9
-75 15 -125 6 -49 13 -101 15 -115 2 -14 7 -45 10 -70 3 -25 10 -72 15 -105 5
-33 12 -80 15 -105 3 -25 19 -121 35 -215 159 -924 385 -1760 705 -2611 116
-308 257 -650 350 -849 13 -27 58 -124 100 -215 66 -142 262 -532 337 -670
442 -810 946 -1563 1501 -2240 6 -8 32 -40 57 -70 25 -30 47 -57 50 -60 3 -3
30 -34 60 -70 30 -36 69 -81 86 -100 17 -19 66 -75 110 -125 43 -49 83 -95 89
-101 5 -6 53 -58 105 -115 129 -142 648 -661 790 -789 63 -58 137 -126 165
-151 98 -90 376 -327 515 -439 24 -19 71 -57 105 -85 346 -279 846 -634 1245
-885 47 -29 108 -68 135 -85 373 -237 986 -566 1470 -790 1284 -594 2561 -971
4003 -1180 59 -9 409 -50 502 -60 100 -10 134 -14 211 -20 117 -11 146 -13
259 -20 58 -3 122 -8 143 -10 243 -25 1490 -25 1647 -1 14 2 77 7 140 11 63 3
135 8 160 10 25 3 122 12 215 20 182 16 185 17 375 40 2955 364 5712 1644
7895 3665 86 80 649 642 725 725 282 305 646 733 857 1011 12 16 29 38 38 49
9 11 59 79 111 150 52 72 102 139 110 150 111 150 363 524 499 739 282 446
465 776 721 1293 79 161 144 294 144 297 0 2 18 43 41 91 254 546 493 1189
703 1895 131 437 266 1020 351 1510 4 19 11 60 16 90 6 30 12 71 14 90 3 19 7
44 10 56 7 32 56 384 70 504 4 30 8 66 10 80 2 14 9 77 15 140 6 63 13 131 16
150 2 19 7 73 10 120 3 47 7 96 9 110 3 14 7 79 11 145 3 66 8 136 10 155 24
247 24 1450 -1 1601 -2 13 -6 80 -10 149 -3 69 -7 136 -9 150 -3 14 -7 63 -11
110 -5 76 -29 319 -40 410 -2 19 -7 60 -10 90 -3 30 -8 66 -10 80 -2 14 -7 43
-9 65 -5 34 -17 120 -42 295 -3 19 -19 114 -35 210 -209 1232 -582 2436 -1111
3580 -81 174 -348 709 -367 735 -5 6 -31 53 -59 106 -28 53 -65 120 -82 148
-16 29 -30 54 -30 56 0 6 -238 403 -327 545 -267 424 -632 935 -932 1306 -36
44 -79 98 -96 119 -16 21 -35 43 -40 49 -6 6 -33 38 -60 71 -28 33 -54 65 -60
71 -5 6 -32 37 -60 70 -27 32 -72 84 -100 114 -27 31 -84 94 -125 140 -146
165 -208 228 -490 510 -281 281 -344 342 -509 490 -46 41 -89 80 -95 85 -6 6
-60 53 -121 105 -60 52 -115 100 -121 105 -6 6 -30 26 -55 47 -299 248 -472
383 -704 552 -83 60 -172 126 -200 146 -51 38 -149 106 -291 202 -248 168
-712 455 -962 593 -76 43 -179 99 -222 123 -93 50 -628 320 -705 355 -44 20
-120 55 -170 77 -1144 527 -2517 928 -3815 1114 -90 13 -197 28 -220 30 -86
10 -157 19 -170 21 -8 1 -49 6 -90 10 -41 4 -82 9 -90 10 -8 1 -53 6 -100 10
-47 3 -101 8 -120 10 -19 2 -73 7 -120 10 -47 4 -105 8 -130 10 -25 2 -99 6
-165 10 -66 3 -147 8 -180 11 -69 5 -992 14 -997 10z"/>
</g>
</svg>
